<mxfile host="app.diagrams.net" modified="2023-12-10T15:21:40.160Z" agent="Mozilla/5.0 (Windows NT 10.0; Win64; x64) AppleWebKit/537.36 (KHTML, like Gecko) Chrome/119.0.0.0 Safari/537.36" etag="3oNViwPT_I8EsQKfTfFv" version="22.1.7" type="device">
  <diagram name="Page-1" id="rMk5pQkFbILxSp4M-7yF">
    <mxGraphModel dx="926" dy="469" grid="1" gridSize="10" guides="1" tooltips="1" connect="1" arrows="1" fold="1" page="1" pageScale="1" pageWidth="850" pageHeight="1100" math="0" shadow="0">
      <root>
        <mxCell id="0" />
        <mxCell id="1" parent="0" />
        <object label="User" id="tYUwBz76xJQsn6zXfqUm-5">
          <mxCell style="shape=umlActor;verticalLabelPosition=bottom;verticalAlign=top;html=1;outlineConnect=0;movable=1;resizable=1;rotatable=1;deletable=1;editable=1;locked=0;connectable=1;" parent="1" vertex="1">
            <mxGeometry x="50" y="350" width="50" height="100" as="geometry" />
          </mxCell>
        </object>
        <mxCell id="tYUwBz76xJQsn6zXfqUm-6" value="&lt;font style=&quot;font-size: 18px;&quot;&gt;PitchPerfect application&lt;/font&gt;" style="rounded=0;whiteSpace=wrap;html=1;align=center;verticalAlign=top;fillColor=#d5e8d4;strokeColor=#82b366;fontSize=18;" parent="1" vertex="1">
          <mxGeometry x="240" y="200" width="480" height="650" as="geometry" />
        </mxCell>
        <mxCell id="tYUwBz76xJQsn6zXfqUm-50" style="edgeStyle=orthogonalEdgeStyle;rounded=0;orthogonalLoop=1;jettySize=auto;html=1;entryX=0.5;entryY=1;entryDx=0;entryDy=0;dashed=1;dashPattern=8 8;startArrow=open;startFill=0;endArrow=none;endFill=0;exitX=1;exitY=0.5;exitDx=0;exitDy=0;" parent="1" source="tYUwBz76xJQsn6zXfqUm-7" edge="1">
          <mxGeometry relative="1" as="geometry">
            <Array as="points">
              <mxPoint x="505" y="470" />
            </Array>
            <mxPoint x="386.2421507712336" y="470.0526315789474" as="sourcePoint" />
            <mxPoint x="505.0000000000002" y="390" as="targetPoint" />
          </mxGeometry>
        </mxCell>
        <mxCell id="tYUwBz76xJQsn6zXfqUm-7" value="Record Audio" style="ellipse;whiteSpace=wrap;html=1;" parent="1" vertex="1">
          <mxGeometry x="260" y="440" width="130" height="60" as="geometry" />
        </mxCell>
        <mxCell id="tYUwBz76xJQsn6zXfqUm-9" value="Setup processing parameters" style="ellipse;whiteSpace=wrap;html=1;" parent="1" vertex="1">
          <mxGeometry x="260" y="340" width="130" height="60" as="geometry" />
        </mxCell>
        <mxCell id="tYUwBz76xJQsn6zXfqUm-26" style="edgeStyle=orthogonalEdgeStyle;rounded=0;orthogonalLoop=1;jettySize=auto;html=1;exitX=1;exitY=0.5;exitDx=0;exitDy=0;entryX=0.5;entryY=0;entryDx=0;entryDy=0;startArrow=blockThin;startFill=0;endArrow=none;endFill=0;targetPerimeterSpacing=0;" parent="1" source="tYUwBz76xJQsn6zXfqUm-12" target="tYUwBz76xJQsn6zXfqUm-13" edge="1">
          <mxGeometry relative="1" as="geometry">
            <Array as="points">
              <mxPoint x="475" y="570" />
            </Array>
          </mxGeometry>
        </mxCell>
        <mxCell id="tYUwBz76xJQsn6zXfqUm-53" style="edgeStyle=orthogonalEdgeStyle;rounded=0;orthogonalLoop=1;jettySize=auto;html=1;entryX=0.5;entryY=0;entryDx=0;entryDy=0;startArrow=blockThin;startFill=0;endArrow=none;endFill=0;" parent="1" source="tYUwBz76xJQsn6zXfqUm-12" target="tYUwBz76xJQsn6zXfqUm-14" edge="1">
          <mxGeometry relative="1" as="geometry" />
        </mxCell>
        <mxCell id="JMPtWyGSebtc3CJ3gG02-1" style="edgeStyle=orthogonalEdgeStyle;rounded=0;orthogonalLoop=1;jettySize=auto;html=1;entryX=0.5;entryY=0;entryDx=0;entryDy=0;endArrow=open;endFill=0;dashed=1;dashPattern=8 8;" edge="1" parent="1" source="tYUwBz76xJQsn6zXfqUm-12" target="tYUwBz76xJQsn6zXfqUm-37">
          <mxGeometry relative="1" as="geometry">
            <Array as="points">
              <mxPoint x="325" y="520" />
              <mxPoint x="635" y="520" />
            </Array>
          </mxGeometry>
        </mxCell>
        <mxCell id="tYUwBz76xJQsn6zXfqUm-12" value="Export music sheet" style="ellipse;whiteSpace=wrap;html=1;" parent="1" vertex="1">
          <mxGeometry x="260" y="540" width="130" height="60" as="geometry" />
        </mxCell>
        <mxCell id="JMPtWyGSebtc3CJ3gG02-5" style="edgeStyle=orthogonalEdgeStyle;rounded=0;orthogonalLoop=1;jettySize=auto;html=1;entryX=0.5;entryY=0;entryDx=0;entryDy=0;startArrow=open;startFill=0;endArrow=none;endFill=0;dashed=1;dashPattern=8 8;" edge="1" parent="1" source="tYUwBz76xJQsn6zXfqUm-13" target="tYUwBz76xJQsn6zXfqUm-61">
          <mxGeometry relative="1" as="geometry" />
        </mxCell>
        <mxCell id="tYUwBz76xJQsn6zXfqUm-13" value="Download" style="ellipse;whiteSpace=wrap;html=1;" parent="1" vertex="1">
          <mxGeometry x="410" y="590" width="130" height="60" as="geometry" />
        </mxCell>
        <mxCell id="tYUwBz76xJQsn6zXfqUm-54" style="edgeStyle=orthogonalEdgeStyle;rounded=0;orthogonalLoop=1;jettySize=auto;html=1;entryX=0.5;entryY=0;entryDx=0;entryDy=0;endArrow=open;endFill=0;dashed=1;dashPattern=8 8;" parent="1" source="tYUwBz76xJQsn6zXfqUm-14" target="tYUwBz76xJQsn6zXfqUm-41" edge="1">
          <mxGeometry relative="1" as="geometry" />
        </mxCell>
        <mxCell id="tYUwBz76xJQsn6zXfqUm-58" value="&amp;lt;&amp;lt;include&amp;gt;&amp;gt;" style="edgeLabel;html=1;align=center;verticalAlign=middle;resizable=0;points=[];labelBackgroundColor=none;" parent="tYUwBz76xJQsn6zXfqUm-54" vertex="1" connectable="0">
          <mxGeometry x="0.0441" y="-4" relative="1" as="geometry">
            <mxPoint x="7" y="-8" as="offset" />
          </mxGeometry>
        </mxCell>
        <mxCell id="JMPtWyGSebtc3CJ3gG02-3" style="edgeStyle=orthogonalEdgeStyle;rounded=0;orthogonalLoop=1;jettySize=auto;html=1;entryX=0;entryY=0.5;entryDx=0;entryDy=0;dashed=1;dashPattern=8 8;startArrow=open;startFill=0;endArrow=none;endFill=0;" edge="1" parent="1" source="tYUwBz76xJQsn6zXfqUm-14" target="tYUwBz76xJQsn6zXfqUm-61">
          <mxGeometry relative="1" as="geometry">
            <Array as="points">
              <mxPoint x="400" y="690" />
            </Array>
          </mxGeometry>
        </mxCell>
        <mxCell id="tYUwBz76xJQsn6zXfqUm-14" value="Send to email" style="ellipse;whiteSpace=wrap;html=1;" parent="1" vertex="1">
          <mxGeometry x="260" y="650" width="130" height="60" as="geometry" />
        </mxCell>
        <mxCell id="tYUwBz76xJQsn6zXfqUm-20" value="" style="edgeStyle=orthogonalEdgeStyle;rounded=0;orthogonalLoop=1;jettySize=auto;html=1;" parent="1" source="tYUwBz76xJQsn6zXfqUm-5" target="tYUwBz76xJQsn6zXfqUm-7" edge="1">
          <mxGeometry relative="1" as="geometry">
            <Array as="points">
              <mxPoint x="120" y="400" />
              <mxPoint x="120" y="470" />
            </Array>
          </mxGeometry>
        </mxCell>
        <mxCell id="tYUwBz76xJQsn6zXfqUm-22" style="edgeStyle=orthogonalEdgeStyle;rounded=0;orthogonalLoop=1;jettySize=auto;html=1;entryX=0;entryY=0.5;entryDx=0;entryDy=0;" parent="1" source="tYUwBz76xJQsn6zXfqUm-5" target="tYUwBz76xJQsn6zXfqUm-12" edge="1">
          <mxGeometry relative="1" as="geometry">
            <Array as="points">
              <mxPoint x="90" y="570" />
            </Array>
          </mxGeometry>
        </mxCell>
        <mxCell id="tYUwBz76xJQsn6zXfqUm-35" style="edgeStyle=orthogonalEdgeStyle;rounded=0;orthogonalLoop=1;jettySize=auto;html=1;" parent="1" source="tYUwBz76xJQsn6zXfqUm-27" target="tYUwBz76xJQsn6zXfqUm-33" edge="1">
          <mxGeometry relative="1" as="geometry">
            <Array as="points">
              <mxPoint x="770" y="390" />
              <mxPoint x="770" y="460" />
            </Array>
          </mxGeometry>
        </mxCell>
        <mxCell id="tYUwBz76xJQsn6zXfqUm-39" style="edgeStyle=orthogonalEdgeStyle;rounded=0;orthogonalLoop=1;jettySize=auto;html=1;entryX=1;entryY=0.5;entryDx=0;entryDy=0;" parent="1" source="tYUwBz76xJQsn6zXfqUm-27" target="tYUwBz76xJQsn6zXfqUm-37" edge="1">
          <mxGeometry relative="1" as="geometry">
            <Array as="points">
              <mxPoint x="850" y="410" />
              <mxPoint x="850" y="570" />
            </Array>
          </mxGeometry>
        </mxCell>
        <mxCell id="tYUwBz76xJQsn6zXfqUm-52" style="edgeStyle=orthogonalEdgeStyle;rounded=0;orthogonalLoop=1;jettySize=auto;html=1;entryX=1;entryY=0.5;entryDx=0;entryDy=0;" parent="1" source="tYUwBz76xJQsn6zXfqUm-27" target="tYUwBz76xJQsn6zXfqUm-51" edge="1">
          <mxGeometry relative="1" as="geometry">
            <Array as="points">
              <mxPoint x="900" y="680" />
            </Array>
          </mxGeometry>
        </mxCell>
        <object label="Application Service" id="tYUwBz76xJQsn6zXfqUm-27">
          <mxCell style="shape=umlActor;verticalLabelPosition=bottom;verticalAlign=top;html=1;outlineConnect=0;movable=1;resizable=1;rotatable=1;deletable=1;editable=1;locked=0;connectable=1;" parent="1" vertex="1">
            <mxGeometry x="890" y="350" width="50" height="100" as="geometry" />
          </mxCell>
        </object>
        <mxCell id="tYUwBz76xJQsn6zXfqUm-30" value="Change processing parameters" style="ellipse;whiteSpace=wrap;html=1;" parent="1" vertex="1">
          <mxGeometry x="440" y="340" width="130" height="60" as="geometry" />
        </mxCell>
        <mxCell id="tYUwBz76xJQsn6zXfqUm-33" value="Process Audio" style="ellipse;whiteSpace=wrap;html=1;" parent="1" vertex="1">
          <mxGeometry x="570" y="430" width="130" height="60" as="geometry" />
        </mxCell>
        <mxCell id="tYUwBz76xJQsn6zXfqUm-37" value="Generate music sheet" style="ellipse;whiteSpace=wrap;html=1;" parent="1" vertex="1">
          <mxGeometry x="570" y="540" width="130" height="60" as="geometry" />
        </mxCell>
        <mxCell id="tYUwBz76xJQsn6zXfqUm-41" value="Input the email address" style="ellipse;whiteSpace=wrap;html=1;" parent="1" vertex="1">
          <mxGeometry x="260" y="780" width="130" height="60" as="geometry" />
        </mxCell>
        <mxCell id="tYUwBz76xJQsn6zXfqUm-47" style="edgeStyle=orthogonalEdgeStyle;rounded=0;orthogonalLoop=1;jettySize=auto;html=1;entryX=0;entryY=0.5;entryDx=0;entryDy=0;dashed=1;dashPattern=8 8;startArrow=open;startFill=0;endArrow=none;endFill=0;" parent="1" source="tYUwBz76xJQsn6zXfqUm-45" target="tYUwBz76xJQsn6zXfqUm-46" edge="1">
          <mxGeometry relative="1" as="geometry" />
        </mxCell>
        <mxCell id="tYUwBz76xJQsn6zXfqUm-45" value="Start the application" style="ellipse;whiteSpace=wrap;html=1;" parent="1" vertex="1">
          <mxGeometry x="260" y="260" width="130" height="60" as="geometry" />
        </mxCell>
        <mxCell id="tYUwBz76xJQsn6zXfqUm-46" value="Read about the application" style="ellipse;whiteSpace=wrap;html=1;" parent="1" vertex="1">
          <mxGeometry x="440" y="260" width="130" height="60" as="geometry" />
        </mxCell>
        <mxCell id="tYUwBz76xJQsn6zXfqUm-48" style="edgeStyle=orthogonalEdgeStyle;rounded=0;orthogonalLoop=1;jettySize=auto;html=1;entryX=0;entryY=0.5;entryDx=0;entryDy=0;" parent="1" source="tYUwBz76xJQsn6zXfqUm-5" target="tYUwBz76xJQsn6zXfqUm-45" edge="1">
          <mxGeometry relative="1" as="geometry">
            <Array as="points">
              <mxPoint x="100" y="290" />
            </Array>
          </mxGeometry>
        </mxCell>
        <mxCell id="tYUwBz76xJQsn6zXfqUm-49" style="edgeStyle=orthogonalEdgeStyle;rounded=0;orthogonalLoop=1;jettySize=auto;html=1;entryX=0;entryY=0.5;entryDx=0;entryDy=0;" parent="1" source="tYUwBz76xJQsn6zXfqUm-5" target="tYUwBz76xJQsn6zXfqUm-9" edge="1">
          <mxGeometry relative="1" as="geometry">
            <Array as="points">
              <mxPoint x="250" y="370" />
              <mxPoint x="250" y="370" />
            </Array>
          </mxGeometry>
        </mxCell>
        <mxCell id="tYUwBz76xJQsn6zXfqUm-56" style="edgeStyle=orthogonalEdgeStyle;rounded=0;orthogonalLoop=1;jettySize=auto;html=1;entryX=1;entryY=0.5;entryDx=0;entryDy=0;startArrow=open;startFill=0;endArrow=none;endFill=0;dashed=1;dashPattern=8 8;" parent="1" source="tYUwBz76xJQsn6zXfqUm-51" target="tYUwBz76xJQsn6zXfqUm-55" edge="1">
          <mxGeometry relative="1" as="geometry" />
        </mxCell>
        <mxCell id="tYUwBz76xJQsn6zXfqUm-57" value="&amp;lt;&amp;lt;extend&amp;gt;&amp;gt;&lt;br&gt;{If the user &lt;br&gt;choose &quot;send &lt;br&gt;to email&quot;option}" style="edgeLabel;html=1;align=center;verticalAlign=middle;resizable=0;points=[];labelBackgroundColor=none;" parent="tYUwBz76xJQsn6zXfqUm-56" vertex="1" connectable="0">
          <mxGeometry x="0.3764" y="-4" relative="1" as="geometry">
            <mxPoint x="47" y="-29" as="offset" />
          </mxGeometry>
        </mxCell>
        <mxCell id="tYUwBz76xJQsn6zXfqUm-51" value="Provide the music sheet to the user" style="ellipse;whiteSpace=wrap;html=1;" parent="1" vertex="1">
          <mxGeometry x="570" y="650" width="130" height="60" as="geometry" />
        </mxCell>
        <mxCell id="tYUwBz76xJQsn6zXfqUm-55" value="Ask for email address" style="ellipse;whiteSpace=wrap;html=1;" parent="1" vertex="1">
          <mxGeometry x="480" y="780" width="130" height="60" as="geometry" />
        </mxCell>
        <mxCell id="tYUwBz76xJQsn6zXfqUm-61" value="Give feedback" style="ellipse;whiteSpace=wrap;html=1;" parent="1" vertex="1">
          <mxGeometry x="410" y="710" width="130" height="60" as="geometry" />
        </mxCell>
        <mxCell id="tYUwBz76xJQsn6zXfqUm-65" value="&amp;lt;&amp;lt;extend&amp;gt;&amp;gt;" style="edgeLabel;html=1;align=center;verticalAlign=middle;resizable=0;points=[];labelBackgroundColor=none;" parent="1" vertex="1" connectable="0">
          <mxGeometry x="414" y="270.99647058823535" as="geometry" />
        </mxCell>
        <mxCell id="tYUwBz76xJQsn6zXfqUm-66" value="&amp;lt;&amp;lt;extend&amp;gt;&amp;gt;" style="edgeLabel;html=1;align=center;verticalAlign=middle;resizable=0;points=[];labelBackgroundColor=none;" parent="1" vertex="1" connectable="0">
          <mxGeometry x="449" y="469.99647058823535" as="geometry">
            <mxPoint x="3" y="-10" as="offset" />
          </mxGeometry>
        </mxCell>
        <mxCell id="JMPtWyGSebtc3CJ3gG02-2" value="&amp;lt;&amp;lt;include&amp;gt;&amp;gt;" style="edgeLabel;html=1;align=center;verticalAlign=middle;resizable=0;points=[];labelBackgroundColor=none;" vertex="1" connectable="0" parent="1">
          <mxGeometry x="359" y="704" as="geometry">
            <mxPoint x="107" y="-195" as="offset" />
          </mxGeometry>
        </mxCell>
        <mxCell id="JMPtWyGSebtc3CJ3gG02-4" value="&amp;lt;&amp;lt;extend&amp;gt;&amp;gt;" style="edgeLabel;html=1;align=center;verticalAlign=middle;resizable=0;points=[];labelBackgroundColor=none;" vertex="1" connectable="0" parent="1">
          <mxGeometry x="421" y="700.9964705882353" as="geometry">
            <mxPoint x="-18" y="4" as="offset" />
          </mxGeometry>
        </mxCell>
        <mxCell id="JMPtWyGSebtc3CJ3gG02-6" value="&amp;lt;&amp;lt;extend&amp;gt;&amp;gt;" style="edgeLabel;html=1;align=center;verticalAlign=middle;resizable=0;points=[];labelBackgroundColor=none;" vertex="1" connectable="0" parent="1">
          <mxGeometry x="467" y="684.9964705882353" as="geometry">
            <mxPoint x="8" y="-7" as="offset" />
          </mxGeometry>
        </mxCell>
      </root>
    </mxGraphModel>
  </diagram>
</mxfile>
